<svg width="8" height="14" viewBox="0 0 8 14" fill="none" xmlns="http://www.w3.org/2000/svg">
<path d="M6.30334 0.658842L6.30339 0.658895L6.30943 0.652644C6.35555 0.604889 6.41073 0.566798 6.47173 0.540593C6.53273 0.514389 6.59834 0.500596 6.66473 0.500019C6.73112 0.499442 6.79696 0.512093 6.85841 0.537234C6.91986 0.562374 6.97568 0.599501 7.02263 0.646447C7.06957 0.693394 7.1067 0.749219 7.13184 0.810667C7.15698 0.872115 7.16963 0.937955 7.16906 1.00434C7.16848 1.07073 7.15469 1.13634 7.12848 1.19735C7.10228 1.25835 7.06419 1.31352 7.01643 1.35964L7.01638 1.35959L7.01023 1.36574L2.06023 6.31573L1.70668 6.66929L2.06023 7.02284L7.00664 11.9693C7.09614 12.0633 7.14561 12.1885 7.14448 12.3183C7.14334 12.4494 7.09076 12.5748 6.99805 12.6676C6.90535 12.7603 6.77994 12.8128 6.64884 12.814C6.51895 12.8151 6.39377 12.7656 6.29975 12.6761L0.646393 7.02279C0.646376 7.02277 0.646358 7.02275 0.64634 7.02273C0.552638 6.92898 0.5 6.80184 0.5 6.66929C0.5 6.53673 0.552638 6.4096 0.64634 6.31584C0.646358 6.31582 0.646376 6.31581 0.646393 6.31579L6.30334 0.658842Z" fill="black" stroke="#3C3C3C"/>
</svg>
