<svg width="10" height="8" viewBox="0 0 10 8" fill="none" xmlns="http://www.w3.org/2000/svg">
<path d="M9.74151 0.233811C9.82075 0.31051 9.88435 0.402316 9.92866 0.503986C9.97297 0.605656 9.99713 0.715198 9.99976 0.826355C10.0024 0.937512 9.98344 1.04811 9.94399 1.15182C9.90454 1.25554 9.84537 1.35034 9.76984 1.43082L3.61168 8L0.230109 4.39372C0.0776135 4.23117 -0.00507227 4.01374 0.000241119 3.78926C0.0055545 3.56477 0.0984318 3.35163 0.258441 3.19671C0.418451 3.0418 0.632485 2.9578 0.853459 2.96319C1.07443 2.96859 1.28425 3.06294 1.43674 3.2255L3.61168 5.54502L8.56321 0.262593C8.63871 0.182093 8.72908 0.117491 8.82916 0.0724761C8.92924 0.0274618 9.03707 0.00291744 9.14649 0.000244636C9.25591 -0.00242817 9.36478 0.016823 9.46687 0.0568988C9.56897 0.0969746 9.66229 0.15709 9.74151 0.233811Z" fill="white"/>
</svg>
