<svg width="48" height="48" viewBox="0 0 48 48" fill="none" xmlns="http://www.w3.org/2000/svg">
<path d="M24 44C26.6269 44.0033 29.2286 43.4874 31.6555 42.4821C34.0825 41.4768 36.2868 40.0019 38.142 38.142C40.0019 36.2868 41.4768 34.0825 42.4821 31.6555C43.4874 29.2286 44.0033 26.6269 44 24C44.0033 21.3731 43.4874 18.7714 42.4821 16.3445C41.4768 13.9176 40.0019 11.7132 38.142 9.85802C36.2868 7.99818 34.0825 6.52323 31.6555 5.51793C29.2286 4.51263 26.6269 3.99678 24 4.00002C21.3731 3.99678 18.7714 4.51263 16.3445 5.51793C13.9176 6.52323 11.7132 7.99818 9.85802 9.85802C7.99818 11.7132 6.52323 13.9176 5.51793 16.3445C4.51263 18.7714 3.99678 21.3731 4.00002 24C3.99678 26.6269 4.51263 29.2286 5.51793 31.6555C6.52323 34.0825 7.99818 36.2868 9.85802 38.142C11.7132 40.0019 13.9176 41.4768 16.3445 42.4821C18.7714 43.4874 21.3731 44.0033 24 44Z" fill="#4ADE80" stroke="#4ADE80" stroke-width="2" stroke-linejoin="round"/>
<path d="M16 24L22 30L34 18" stroke="white" stroke-width="2" stroke-linecap="round" stroke-linejoin="round"/>
</svg>
