<svg width="40" height="40" viewBox="0 0 40 40" fill="none" xmlns="http://www.w3.org/2000/svg">
<rect width="40" height="40" rx="4" fill="#10203A"/>
<path d="M17.4964 17.326H15.1058C15.0376 16.9339 14.9119 16.5866 14.7287 16.2841C14.5455 15.9773 14.3175 15.7173 14.0447 15.5043C13.772 15.2912 13.4609 15.1314 13.1115 15.0249C12.7663 14.9141 12.3935 14.8587 11.9929 14.8587C11.2813 14.8587 10.6506 15.0376 10.1009 15.3956C9.55114 15.7493 9.12074 16.2692 8.80966 16.9553C8.49858 17.6371 8.34304 18.4702 8.34304 19.4545C8.34304 20.456 8.49858 21.2997 8.80966 21.9858C9.125 22.6676 9.5554 23.1832 10.1009 23.5327C10.6506 23.8778 11.2791 24.0504 11.9865 24.0504C12.3786 24.0504 12.745 23.9993 13.0859 23.897C13.4311 23.7905 13.7401 23.6349 14.0128 23.4304C14.2898 23.2259 14.522 22.9744 14.7095 22.6761C14.9013 22.3778 15.0334 22.0369 15.1058 21.6534L17.4964 21.6662C17.407 22.2884 17.2131 22.8722 16.9148 23.4176C16.6207 23.9631 16.2351 24.4446 15.7578 24.8622C15.2805 25.2756 14.7223 25.5994 14.0831 25.8338C13.4439 26.0639 12.7344 26.179 11.9545 26.179C10.804 26.179 9.77699 25.9126 8.87358 25.38C7.97017 24.8473 7.25852 24.0781 6.73864 23.0724C6.21875 22.0668 5.95881 20.8608 5.95881 19.4545C5.95881 18.044 6.22088 16.8381 6.74503 15.8366C7.26918 14.831 7.98295 14.0618 8.88636 13.5291C9.78977 12.9964 10.8125 12.7301 11.9545 12.7301C12.6832 12.7301 13.3608 12.8324 13.9872 13.0369C14.6136 13.2415 15.1719 13.5419 15.6619 13.9382C16.152 14.3303 16.5547 14.8118 16.87 15.3828C17.1896 15.9496 17.3984 16.5973 17.4964 17.326ZM22.3912 26.1982C21.769 26.1982 21.2086 26.0874 20.71 25.8658C20.2157 25.6399 19.8237 25.3075 19.5339 24.8686C19.2484 24.4297 19.1056 23.8885 19.1056 23.245C19.1056 22.6911 19.2079 22.233 19.4125 21.8707C19.617 21.5085 19.8961 21.2188 20.2498 21.0014C20.6035 20.7841 21.002 20.62 21.4451 20.5092C21.8926 20.3942 22.3549 20.3111 22.8322 20.2599C23.4075 20.2003 23.8741 20.147 24.2321 20.1001C24.59 20.049 24.85 19.9723 25.0119 19.87C25.1781 19.7635 25.2612 19.5994 25.2612 19.3778V19.3395C25.2612 18.858 25.1184 18.4851 24.8329 18.2209C24.5474 17.9567 24.1362 17.8246 23.5993 17.8246C23.0325 17.8246 22.5829 17.9482 22.2505 18.1953C21.9224 18.4425 21.7008 18.7344 21.5858 19.071L19.4252 18.7642C19.5957 18.1676 19.877 17.669 20.269 17.2685C20.661 16.8636 21.1404 16.5611 21.7072 16.3608C22.274 16.1562 22.9004 16.054 23.5865 16.054C24.0595 16.054 24.5304 16.1094 24.9991 16.2202C25.4679 16.331 25.8961 16.5142 26.2839 16.7699C26.6717 17.0213 26.9828 17.3643 27.2172 17.799C27.4558 18.2337 27.5751 18.777 27.5751 19.429V26H25.3507V24.6513H25.274C25.1333 24.924 24.9352 25.1797 24.6795 25.4183C24.4281 25.6527 24.1106 25.8423 23.7271 25.9872C23.3478 26.1278 22.9025 26.1982 22.3912 26.1982ZM22.992 24.4979C23.4565 24.4979 23.8592 24.4062 24.2001 24.223C24.541 24.0355 24.8031 23.7884 24.9863 23.4815C25.1738 23.1747 25.2676 22.8402 25.2676 22.478V21.321C25.1951 21.3807 25.0716 21.4361 24.8968 21.4872C24.7264 21.5384 24.5346 21.5831 24.3216 21.6214C24.1085 21.6598 23.8975 21.6939 23.6887 21.7237C23.4799 21.7536 23.2988 21.7791 23.1454 21.8004C22.8002 21.8473 22.4913 21.924 22.2186 22.0305C21.9458 22.1371 21.7306 22.2862 21.573 22.478C21.4153 22.6655 21.3365 22.9084 21.3365 23.2067C21.3365 23.6328 21.492 23.9545 21.8031 24.1719C22.1142 24.3892 22.5105 24.4979 22.992 24.4979ZM32.2157 12.9091V26H29.9018V12.9091H32.2157Z" fill="white"/>
</svg>
