<svg width="18" height="18" viewBox="0 0 18 18" fill="none" xmlns="http://www.w3.org/2000/svg">
<path d="M14.25 6.75C14.25 6.06056 14.1142 5.37787 13.8504 4.74091C13.5865 4.10395 13.1998 3.5252 12.7123 3.03769C12.2248 2.55018 11.646 2.16347 11.0091 1.89963C10.3721 1.6358 9.68944 1.5 9 1.5C8.31056 1.5 7.62787 1.6358 6.99091 1.89963C6.35395 2.16347 5.7752 2.55018 5.28769 3.03769C4.80018 3.5252 4.41347 4.10395 4.14963 4.74091C3.8858 5.37787 3.75 6.06056 3.75 6.75C3.75 7.79025 4.05675 8.75775 4.57875 9.57375H4.57275L9 16.5L13.4272 9.57375H13.422C13.9627 8.7312 14.2501 7.75112 14.25 6.75ZM9 9C8.40326 9 7.83097 8.76295 7.40901 8.34099C6.98705 7.91903 6.75 7.34674 6.75 6.75C6.75 6.15326 6.98705 5.58097 7.40901 5.15901C7.83097 4.73705 8.40326 4.5 9 4.5C9.59674 4.5 10.169 4.73705 10.591 5.15901C11.0129 5.58097 11.25 6.15326 11.25 6.75C11.25 7.34674 11.0129 7.91903 10.591 8.34099C10.169 8.76295 9.59674 9 9 9Z" fill="#3C3C3C"/>
</svg>
