<svg width="18" height="18" viewBox="0 0 18 18" fill="none" xmlns="http://www.w3.org/2000/svg">
<path d="M9 3.75C8.30381 3.75 7.63613 4.02656 7.14384 4.51884C6.65156 5.01113 6.375 5.67881 6.375 6.375C6.375 7.07119 6.65156 7.73887 7.14384 8.23115C7.63613 8.72344 8.30381 9 9 9C9.69619 9 10.3639 8.72344 10.8562 8.23115C11.3484 7.73887 11.625 7.07119 11.625 6.375C11.625 5.67881 11.3484 5.01113 10.8562 4.51884C10.3639 4.02656 9.69619 3.75 9 3.75ZM9 5.25C9.29837 5.25 9.58452 5.36853 9.7955 5.5795C10.0065 5.79048 10.125 6.07663 10.125 6.375C10.125 6.67337 10.0065 6.95952 9.7955 7.17049C9.58452 7.38147 9.29837 7.5 9 7.5C8.70163 7.5 8.41548 7.38147 8.2045 7.17049C7.99353 6.95952 7.875 6.67337 7.875 6.375C7.875 6.07663 7.99353 5.79048 8.2045 5.5795C8.41548 5.36853 8.70163 5.25 9 5.25ZM4.125 6C3.62772 6 3.15081 6.19754 2.79917 6.54917C2.44754 6.90081 2.25 7.37772 2.25 7.875C2.25 8.58 2.6475 9.1875 3.2175 9.51C3.4875 9.66 3.795 9.75 4.125 9.75C4.455 9.75 4.7625 9.66 5.0325 9.51C5.31 9.3525 5.5425 9.1275 5.715 8.8575C5.16861 8.14543 4.87326 7.27254 4.875 6.375V6.165C4.65 6.06 4.395 6 4.125 6ZM13.875 6C13.605 6 13.35 6.06 13.125 6.165V6.375C13.125 7.275 12.8325 8.145 12.285 8.8575C12.375 9 12.4725 9.1125 12.585 9.225C12.9308 9.56046 13.3932 9.74867 13.875 9.75C14.205 9.75 14.5125 9.66 14.7825 9.51C15.3525 9.1875 15.75 8.58 15.75 7.875C15.75 7.37772 15.5525 6.90081 15.2008 6.54917C14.8492 6.19754 14.3723 6 13.875 6ZM9 10.5C7.245 10.5 3.75 11.3775 3.75 13.125V14.25H14.25V13.125C14.25 11.3775 10.755 10.5 9 10.5ZM3.5325 10.9125C2.085 11.085 0 11.82 0 13.125V14.25H2.25V12.8025C2.25 12.045 2.7675 11.415 3.5325 10.9125ZM14.4675 10.9125C15.2325 11.415 15.75 12.045 15.75 12.8025V14.25H18V13.125C18 11.82 15.915 11.085 14.4675 10.9125ZM9 12C10.1475 12 11.43 12.375 12.1725 12.75H5.8275C6.57 12.375 7.8525 12 9 12Z" fill="#3C3C3C"/>
</svg>
