<svg width="18" height="14" viewBox="0 0 18 14" fill="none" xmlns="http://www.w3.org/2000/svg">
<path d="M15.3 3.73406H13.5V6.53386H10.8V8.4004H13.5V11.2002H15.3V8.4004H18V6.53386H15.3V3.73406ZM1.8 3.73406C1.78892 4.22744 1.87446 4.71802 2.05145 5.17613C2.22845 5.63424 2.49321 6.05036 2.82974 6.39933C3.16626 6.74829 3.56755 7.02285 4.00933 7.20638C4.45112 7.38992 4.92421 7.47862 5.4 7.46713C5.87579 7.47862 6.34888 7.38992 6.79067 7.20638C7.23245 7.02285 7.63374 6.74829 7.97026 6.39933C8.30679 6.05036 8.57156 5.63424 8.74855 5.17613C8.92554 4.71802 9.01108 4.22744 9 3.73406C9.01108 3.24068 8.92554 2.7501 8.74855 2.29199C8.57156 1.83388 8.30679 1.41775 7.97026 1.06879C7.63374 0.719825 7.23245 0.445272 6.79067 0.261736C6.34888 0.0782004 5.87579 -0.0105036 5.4 0.000989804C4.92421 -0.0105036 4.45112 0.0782004 4.00933 0.261736C3.56755 0.445272 3.16626 0.719825 2.82974 1.06879C2.49321 1.41775 2.22845 1.83388 2.05145 2.29199C1.87446 2.7501 1.78892 3.24068 1.8 3.73406ZM7.2 3.73406C7.21158 3.98235 7.17294 4.23042 7.08658 4.46231C7.00021 4.6942 6.86803 4.9048 6.69852 5.08058C6.52901 5.25636 6.32592 5.39342 6.10229 5.48298C5.87866 5.57253 5.63944 5.6126 5.4 5.60059C5.16055 5.6126 4.92134 5.57253 4.69771 5.48298C4.47408 5.39342 4.27099 5.25636 4.10148 5.08058C3.93197 4.9048 3.79979 4.6942 3.71342 4.46231C3.62706 4.23042 3.58842 3.98235 3.6 3.73406C3.58842 3.48576 3.62706 3.2377 3.71342 3.00581C3.79979 2.77391 3.93197 2.56332 4.10148 2.38754C4.27099 2.21176 4.47408 2.07469 4.69771 1.98514C4.92134 1.89558 5.16055 1.85552 5.4 1.86752C5.63944 1.85552 5.87866 1.89558 6.10229 1.98514C6.32592 2.07469 6.52901 2.21176 6.69852 2.38754C6.86803 2.56332 7.00021 2.77391 7.08658 3.00581C7.17294 3.2377 7.21158 3.48576 7.2 3.73406ZM1.8 13.0667C1.8 12.3242 2.08446 11.612 2.59081 11.087C3.09716 10.5619 3.78392 10.2669 4.5 10.2669H6.3C7.01608 10.2669 7.70284 10.5619 8.20919 11.087C8.71554 11.612 9 12.3242 9 13.0667V14H10.8V13.0667C10.8 12.4539 10.6836 11.8471 10.4575 11.281C10.2313 10.7149 9.89984 10.2004 9.48198 9.76713C9.06412 9.33382 8.56804 8.9901 8.02207 8.7556C7.47611 8.52109 6.89095 8.4004 6.3 8.4004H4.5C3.30653 8.4004 2.16193 8.89203 1.31802 9.76713C0.474106 10.6422 0 11.8291 0 13.0667V14H1.8V13.0667Z" fill="#3C3C3C"/>
</svg>
